<svg width="605" height="646" viewBox="0 0 605 646" fill="none" xmlns="http://www.w3.org/2000/svg">
    <path d="M402.26 293.708H289.717C289.111 293.701 288.508 293.795 287.932 293.985C286.71 294.363 285.642 295.122 284.883 296.152C284.125 297.182 283.717 298.427 283.719 299.706V477.5H408.276V299.706C408.275 298.917 408.119 298.136 407.816 297.408C407.513 296.679 407.07 296.017 406.511 295.46C405.953 294.903 405.29 294.462 404.56 294.161C403.831 293.86 403.049 293.706 402.26 293.708ZM359.667 381.426C359.671 384.31 358.72 387.114 356.962 389.401C355.285 391.62 352.954 393.256 350.297 394.08C347.641 394.904 344.793 394.874 342.154 393.993C339.516 393.112 337.22 391.426 335.591 389.171C333.962 386.917 333.082 384.208 333.074 381.426V360.797C333.106 357.292 334.522 353.941 337.012 351.474C339.502 349.007 342.865 347.623 346.37 347.623C349.875 347.623 353.239 349.007 355.729 351.474C358.219 353.941 359.634 357.292 359.667 360.797V381.426Z" fill="#2F2E41"/>
    <path d="M283.338 471.814V488.959C283.338 489.848 283.69 490.701 284.317 491.331C284.944 491.962 285.795 492.318 286.684 492.322H405.311C406.2 492.315 407.049 491.958 407.675 491.328C408.302 490.698 408.654 489.847 408.657 488.959V471.814H283.338Z" fill="#3B3355"/>
    <path d="M588.619 16.2509H107.555C103.421 16.2562 99.4584 17.8993 96.5341 20.8204C93.6098 23.7414 91.9623 27.7024 91.9525 31.8357V356.463C91.9557 360.6 93.6006 364.566 96.5258 367.492C99.4511 370.417 103.418 372.062 107.555 372.065H588.619C592.756 372.062 596.722 370.417 599.647 367.492C602.572 364.566 604.217 360.6 604.221 356.463V31.8357C604.211 27.7024 602.563 23.7414 599.639 20.8204C596.715 17.8993 592.752 16.2562 588.619 16.2509Z" fill="#3B3355"/>
    <path d="M584.597 27.5191H111.559C109.346 27.5239 107.225 28.4064 105.662 29.9729C104.099 31.5393 103.221 33.6619 103.221 35.8749V352.458C103.224 354.669 104.104 356.787 105.667 358.35C107.23 359.913 109.349 360.793 111.559 360.797H584.597C586.807 360.793 588.926 359.913 590.489 358.35C592.052 356.787 592.931 354.669 592.935 352.458V35.8749C592.935 33.6619 592.057 31.5393 590.494 29.9729C588.93 28.4064 586.81 27.5239 584.597 27.5191Z" fill="#9D96B8"/>
    <path d="M497.537 492.045L493.168 471.294C492.987 470.448 492.598 469.66 492.034 469.003C491.471 468.346 490.753 467.841 489.944 467.532C489.359 467.303 488.735 467.185 488.106 467.186H215.399C214.771 467.185 214.147 467.303 213.562 467.532C212.753 467.841 212.035 468.346 211.472 469.003C210.908 469.66 210.519 470.448 210.338 471.294L205.969 492.045C205.811 492.798 205.823 493.577 206.004 494.325C206.185 495.073 206.531 495.772 207.015 496.369C207.5 496.967 208.112 497.449 208.807 497.781C209.501 498.112 210.261 498.285 211.031 498.286H492.458C493.23 498.29 493.993 498.119 494.69 497.785C495.386 497.452 495.998 496.965 496.48 496.361C496.965 495.766 497.312 495.069 497.495 494.323C497.678 493.576 497.693 492.798 497.537 492.045Z" fill="#2F2E41"/>
    <path d="M225.22 470.923H218.245C217.777 470.923 217.398 471.302 217.398 471.769V475.277C217.398 475.745 217.777 476.123 218.245 476.123H225.22C225.687 476.123 226.066 475.745 226.066 475.277V471.769C226.066 471.302 225.687 470.923 225.22 470.923Z" fill="#3B3355"/>
    <path d="M242.556 470.923H235.58C235.113 470.923 234.734 471.302 234.734 471.769V475.277C234.734 475.745 235.113 476.123 235.58 476.123H242.556C243.023 476.123 243.402 475.745 243.402 475.277V471.769C243.402 471.302 243.023 470.923 242.556 470.923Z" fill="#3B3355"/>
    <path d="M259.891 470.923H252.916C252.449 470.923 252.07 471.302 252.07 471.769V475.277C252.07 475.745 252.449 476.123 252.916 476.123H259.891C260.359 476.123 260.737 475.745 260.737 475.277V471.769C260.737 471.302 260.359 470.923 259.891 470.923Z" fill="#3B3355"/>
    <path d="M277.227 470.923H270.252C269.784 470.923 269.405 471.302 269.405 471.769V475.277C269.405 475.745 269.784 476.123 270.252 476.123H277.227C277.694 476.123 278.073 475.745 278.073 475.277V471.769C278.073 471.302 277.694 470.923 277.227 470.923Z" fill="#3B3355"/>
    <path d="M294.562 470.923H287.587C287.12 470.923 286.741 471.302 286.741 471.769V475.277C286.741 475.745 287.12 476.123 287.587 476.123H294.562C295.03 476.123 295.409 475.745 295.409 475.277V471.769C295.409 471.302 295.03 470.923 294.562 470.923Z" fill="#3B3355"/>
    <path d="M311.898 470.923H304.923C304.455 470.923 304.077 471.302 304.077 471.769V475.277C304.077 475.745 304.455 476.123 304.923 476.123H311.898C312.365 476.123 312.744 475.745 312.744 475.277V471.769C312.744 471.302 312.365 470.923 311.898 470.923Z" fill="#3B3355"/>
    <path d="M329.234 470.923H322.258C321.791 470.923 321.412 471.302 321.412 471.769V475.277C321.412 475.745 321.791 476.123 322.258 476.123H329.234C329.701 476.123 330.08 475.745 330.08 475.277V471.769C330.08 471.302 329.701 470.923 329.234 470.923Z" fill="#3B3355"/>
    <path d="M346.569 470.923H339.594C339.127 470.923 338.748 471.302 338.748 471.769V475.277C338.748 475.745 339.127 476.123 339.594 476.123H346.569C347.037 476.123 347.416 475.745 347.416 475.277V471.769C347.416 471.302 347.037 470.923 346.569 470.923Z" fill="#3B3355"/>
    <path d="M363.905 470.923H356.93C356.462 470.923 356.083 471.302 356.083 471.769V475.277C356.083 475.745 356.462 476.123 356.93 476.123H363.905C364.372 476.123 364.751 475.745 364.751 475.277V471.769C364.751 471.302 364.372 470.923 363.905 470.923Z" fill="#3B3355"/>
    <path d="M381.241 470.923H374.265C373.798 470.923 373.419 471.302 373.419 471.769V475.277C373.419 475.745 373.798 476.123 374.265 476.123H381.241C381.708 476.123 382.087 475.745 382.087 475.277V471.769C382.087 471.302 381.708 470.923 381.241 470.923Z" fill="#3B3355"/>
    <path d="M398.576 470.923H391.601C391.134 470.923 390.755 471.302 390.755 471.769V475.277C390.755 475.745 391.134 476.123 391.601 476.123H398.576C399.044 476.123 399.423 475.745 399.423 475.277V471.769C399.423 471.302 399.044 470.923 398.576 470.923Z" fill="#3B3355"/>
    <path d="M415.912 470.923H408.937C408.469 470.923 408.09 471.302 408.09 471.769V475.277C408.09 475.745 408.469 476.123 408.937 476.123H415.912C416.379 476.123 416.758 475.745 416.758 475.277V471.769C416.758 471.302 416.379 470.923 415.912 470.923Z" fill="#3B3355"/>
    <path d="M433.247 470.923H426.272C425.805 470.923 425.426 471.302 425.426 471.769V475.277C425.426 475.745 425.805 476.123 426.272 476.123H433.247C433.715 476.123 434.094 475.745 434.094 475.277V471.769C434.094 471.302 433.715 470.923 433.247 470.923Z" fill="#3B3355"/>
    <path d="M450.583 470.923H443.608C443.141 470.923 442.762 471.302 442.762 471.769V475.277C442.762 475.745 443.141 476.123 443.608 476.123H450.583C451.051 476.123 451.43 475.745 451.43 475.277V471.769C451.43 471.302 451.051 470.923 450.583 470.923Z" fill="#3B3355"/>
    <path d="M467.919 470.923H460.944C460.476 470.923 460.097 471.302 460.097 471.769V475.277C460.097 475.745 460.476 476.123 460.944 476.123H467.919C468.386 476.123 468.765 475.745 468.765 475.277V471.769C468.765 471.302 468.386 470.923 467.919 470.923Z" fill="#3B3355"/>
    <path d="M485.254 470.923H478.279C477.812 470.923 477.433 471.302 477.433 471.769V475.277C477.433 475.745 477.812 476.123 478.279 476.123H485.254C485.722 476.123 486.101 475.745 486.101 475.277V471.769C486.101 471.302 485.722 470.923 485.254 470.923Z" fill="#3B3355"/>
    <path d="M225.015 479.591H218.04C217.572 479.591 217.194 479.969 217.194 480.437V483.945C217.194 484.412 217.572 484.791 218.04 484.791H225.015C225.482 484.791 225.861 484.412 225.861 483.945V480.437C225.861 479.969 225.482 479.591 225.015 479.591Z" fill="#3B3355"/>
    <path d="M242.351 479.591H235.375C234.908 479.591 234.529 479.969 234.529 480.437V483.945C234.529 484.412 234.908 484.791 235.375 484.791H242.351C242.818 484.791 243.197 484.412 243.197 483.945V480.437C243.197 479.969 242.818 479.591 242.351 479.591Z" fill="#3B3355"/>
    <path d="M259.686 479.591H252.711C252.244 479.591 251.865 479.969 251.865 480.437V483.945C251.865 484.412 252.244 484.791 252.711 484.791H259.686C260.154 484.791 260.533 484.412 260.533 483.945V480.437C260.533 479.969 260.154 479.591 259.686 479.591Z" fill="#3B3355"/>
    <path d="M277.022 479.591H270.047C269.579 479.591 269.2 479.969 269.2 480.437V483.945C269.2 484.412 269.579 484.791 270.047 484.791H277.022C277.489 484.791 277.868 484.412 277.868 483.945V480.437C277.868 479.969 277.489 479.591 277.022 479.591Z" fill="#3B3355"/>
    <path d="M294.358 479.591H287.382C286.915 479.591 286.536 479.969 286.536 480.437V483.945C286.536 484.412 286.915 484.791 287.382 484.791H294.358C294.825 484.791 295.204 484.412 295.204 483.945V480.437C295.204 479.969 294.825 479.591 294.358 479.591Z" fill="#3B3355"/>
    <path d="M311.693 479.591H304.718C304.251 479.591 303.872 479.969 303.872 480.437V483.945C303.872 484.412 304.251 484.791 304.718 484.791H311.693C312.161 484.791 312.54 484.412 312.54 483.945V480.437C312.54 479.969 312.161 479.591 311.693 479.591Z" fill="#3B3355"/>
    <path d="M329.029 479.591H322.054C321.586 479.591 321.207 479.969 321.207 480.437V483.945C321.207 484.412 321.586 484.791 322.054 484.791H329.029C329.496 484.791 329.875 484.412 329.875 483.945V480.437C329.875 479.969 329.496 479.591 329.029 479.591Z" fill="#3B3355"/>
    <path d="M346.364 479.591H339.389C338.922 479.591 338.543 479.969 338.543 480.437V483.945C338.543 484.412 338.922 484.791 339.389 484.791H346.364C346.832 484.791 347.211 484.412 347.211 483.945V480.437C347.211 479.969 346.832 479.591 346.364 479.591Z" fill="#3B3355"/>
    <path d="M363.7 479.591H356.725C356.258 479.591 355.879 479.969 355.879 480.437V483.945C355.879 484.412 356.258 484.791 356.725 484.791H363.7C364.168 484.791 364.546 484.412 364.546 483.945V480.437C364.546 479.969 364.168 479.591 363.7 479.591Z" fill="#3B3355"/>
    <path d="M381.036 479.591H374.061C373.593 479.591 373.214 479.969 373.214 480.437V483.945C373.214 484.412 373.593 484.791 374.061 484.791H381.036C381.503 484.791 381.882 484.412 381.882 483.945V480.437C381.882 479.969 381.503 479.591 381.036 479.591Z" fill="#3B3355"/>
    <path d="M398.371 479.591H391.396C390.929 479.591 390.55 479.969 390.55 480.437V483.945C390.55 484.412 390.929 484.791 391.396 484.791H398.371C398.839 484.791 399.218 484.412 399.218 483.945V480.437C399.218 479.969 398.839 479.591 398.371 479.591Z" fill="#3B3355"/>
    <path d="M415.707 479.591H408.732C408.264 479.591 407.886 479.969 407.886 480.437V483.945C407.886 484.412 408.264 484.791 408.732 484.791H415.707C416.174 484.791 416.553 484.412 416.553 483.945V480.437C416.553 479.969 416.174 479.591 415.707 479.591Z" fill="#3B3355"/>
    <path d="M433.043 479.591H426.068C425.6 479.591 425.221 479.969 425.221 480.437V483.945C425.221 484.412 425.6 484.791 426.068 484.791H433.043C433.51 484.791 433.889 484.412 433.889 483.945V480.437C433.889 479.969 433.51 479.591 433.043 479.591Z" fill="#3B3355"/>
    <path d="M450.378 479.591H443.403C442.936 479.591 442.557 479.969 442.557 480.437V483.945C442.557 484.412 442.936 484.791 443.403 484.791H450.378C450.846 484.791 451.225 484.412 451.225 483.945V480.437C451.225 479.969 450.846 479.591 450.378 479.591Z" fill="#3B3355"/>
    <path d="M467.714 479.591H460.739C460.271 479.591 459.892 479.969 459.892 480.437V483.945C459.892 484.412 460.271 484.791 460.739 484.791H467.714C468.181 484.791 468.56 484.412 468.56 483.945V480.437C468.56 479.969 468.181 479.591 467.714 479.591Z" fill="#3B3355"/>
    <path d="M485.05 479.591H478.074C477.607 479.591 477.228 479.969 477.228 480.437V483.945C477.228 484.412 477.607 484.791 478.074 484.791H485.05C485.517 484.791 485.896 484.412 485.896 483.945V480.437C485.896 479.969 485.517 479.591 485.05 479.591Z" fill="#3B3355"/>
    <path d="M368.901 489.992H301.251C300.783 489.992 300.405 490.371 300.405 490.838V494.346C300.405 494.814 300.783 495.193 301.251 495.193H368.901C369.368 495.193 369.747 494.814 369.747 494.346V490.838C369.747 490.371 369.368 489.992 368.901 489.992Z" fill="#3B3355"/>
    <path d="M560.826 71.1299H118.207C117.747 71.1197 117.309 70.9299 116.987 70.6009C116.665 70.2719 116.485 69.8299 116.485 69.3697C116.485 68.9094 116.665 68.4675 116.987 68.1385C117.309 67.8095 117.747 67.6196 118.207 67.6095H560.826C561.286 67.6196 561.724 67.8095 562.046 68.1385C562.368 68.4675 562.548 68.9094 562.548 69.3697C562.548 69.8299 562.368 70.2719 562.046 70.6009C561.724 70.9299 561.286 71.1197 560.826 71.1299Z" fill="#3B3355"/>
    <path d="M148.337 58.6224C154.034 58.6224 158.652 53.9011 158.652 48.0771C158.652 42.253 154.034 37.5317 148.337 37.5317C142.639 37.5317 138.021 42.253 138.021 48.0771C138.021 53.9011 142.639 58.6224 148.337 58.6224Z" fill="#3B3355"/>
    <path d="M183.972 58.6224C189.669 58.6224 194.287 53.9011 194.287 48.0771C194.287 42.253 189.669 37.5317 183.972 37.5317C178.275 37.5317 173.656 42.253 173.656 48.0771C173.656 53.9011 178.275 58.6224 183.972 58.6224Z" fill="#3B3355"/>
    <path d="M219.607 58.6224C225.304 58.6224 229.922 53.9011 229.922 48.0771C229.922 42.253 225.304 37.5317 219.607 37.5317C213.91 37.5317 209.291 42.253 209.291 48.0771C209.291 53.9011 213.91 58.6224 219.607 58.6224Z" fill="#3B3355"/>
    <path d="M539.368 40.1394H514.058C513.558 40.1511 513.082 40.3581 512.732 40.716C512.382 41.074 512.186 41.5546 512.186 42.055C512.186 42.5555 512.382 43.0361 512.732 43.394C513.082 43.752 513.558 43.959 514.058 43.9706H539.368C539.871 43.9635 540.352 43.7586 540.705 43.4001C541.059 43.0417 541.257 42.5585 541.257 42.055C541.257 41.5516 541.059 41.0684 540.705 40.71C540.352 40.3515 539.871 40.1465 539.368 40.1394Z" fill="#3B3355"/>
    <path d="M539.368 47.3338H514.058C513.557 47.3448 513.081 47.5515 512.73 47.9095C512.38 48.2676 512.184 48.7485 512.184 49.2493C512.184 49.7502 512.38 50.2311 512.73 50.5891C513.081 50.9471 513.557 51.1538 514.058 51.1649H539.368C539.872 51.1589 540.353 50.9544 540.708 50.5958C541.062 50.2372 541.261 49.7534 541.261 49.2493C541.261 48.7452 541.062 48.2615 540.708 47.9029C540.353 47.5443 539.872 47.3398 539.368 47.3338Z" fill="#3B3355"/>
    <path d="M539.368 54.528H514.058C513.558 54.5397 513.082 54.7466 512.732 55.1046C512.382 55.4626 512.186 55.9432 512.186 56.4436C512.186 56.9441 512.382 57.4247 512.732 57.7827C513.082 58.1406 513.558 58.3476 514.058 58.3592H539.368C539.871 58.3521 540.352 58.1472 540.705 57.7887C541.059 57.4302 541.257 56.947 541.257 56.4436C541.257 55.9402 541.059 55.457 540.705 55.0986C540.352 54.7401 539.871 54.5351 539.368 54.528Z" fill="#3B3355"/>
    <path d="M156.372 112.036H147.278C144.52 112.036 142.285 114.271 142.285 117.029C142.285 119.786 144.52 122.021 147.278 122.021H156.372C159.129 122.021 161.365 119.786 161.365 117.029C161.365 114.271 159.129 112.036 156.372 112.036Z" fill="#FFF9F9"/>
    <path d="M260.386 112.036H251.291C248.534 112.036 246.299 114.271 246.299 117.029C246.299 119.786 248.534 122.021 251.291 122.021H260.386C263.143 122.021 265.379 119.786 265.379 117.029C265.379 114.271 263.143 112.036 260.386 112.036Z" fill="#FBF9FF"/>
    <path d="M289.857 112.036H280.762C278.005 112.036 275.769 114.271 275.769 117.029C275.769 119.786 278.005 122.021 280.762 122.021H289.857C292.614 122.021 294.849 119.786 294.849 117.029C294.849 114.271 292.614 112.036 289.857 112.036Z" fill="#FBF9FF"/>
    <path d="M231.818 111.5H175.294C172.536 111.5 170.301 113.735 170.301 116.493C170.301 119.25 172.536 121.485 175.294 121.485H231.818C234.575 121.485 236.81 119.25 236.81 116.493C236.81 113.735 234.575 111.5 231.818 111.5Z" fill="#FFF9F9"/>
    <path d="M370.779 111.204H314.255C311.497 111.204 309.262 113.439 309.262 116.196C309.262 118.954 311.497 121.189 314.255 121.189H370.779C373.536 121.189 375.772 118.954 375.772 116.196C375.772 113.439 373.536 111.204 370.779 111.204Z" fill="#FBF9FF"/>
    <path d="M184.109 134.572H175.015C172.257 134.572 170.022 136.808 170.022 139.565C170.022 142.322 172.257 144.558 175.015 144.558H184.109C186.866 144.558 189.102 142.322 189.102 139.565C189.102 136.808 186.866 134.572 184.109 134.572Z" fill="#FFF9F9"/>
    <path d="M288.123 134.572H279.028C276.271 134.572 274.036 136.808 274.036 139.565C274.036 142.322 276.271 144.558 279.028 144.558H288.123C290.88 144.558 293.116 142.322 293.116 139.565C293.116 136.808 290.88 134.572 288.123 134.572Z" fill="#FBF9FF"/>
    <path d="M317.594 134.572H308.499C305.742 134.572 303.506 136.808 303.506 139.565C303.506 142.322 305.742 144.558 308.499 144.558H317.594C320.351 144.558 322.586 142.322 322.586 139.565C322.586 136.808 320.351 134.572 317.594 134.572Z" fill="#FBF9FF"/>
    <path d="M259.831 133.74H203.307C200.549 133.74 198.314 135.975 198.314 138.733C198.314 141.49 200.549 143.725 203.307 143.725H259.831C262.588 143.725 264.823 141.49 264.823 138.733C264.823 135.975 262.588 133.74 259.831 133.74Z" fill="#FFF9F9"/>
    <path d="M398.516 133.74H341.992C339.234 133.74 336.999 135.975 336.999 138.733C336.999 141.49 339.234 143.725 341.992 143.725H398.516C401.273 143.725 403.509 141.49 403.509 138.733C403.509 135.975 401.273 133.74 398.516 133.74Z" fill="#FBF9FF"/>
    <path d="M211.846 157.109H202.752C199.994 157.109 197.759 159.344 197.759 162.101C197.759 164.859 199.994 167.094 202.752 167.094H211.846C214.603 167.094 216.839 164.859 216.839 162.101C216.839 159.344 214.603 157.109 211.846 157.109Z" fill="#FFF9F9"/>
    <path d="M315.86 157.109H306.765C304.008 157.109 301.773 159.344 301.773 162.101C301.773 164.859 304.008 167.094 306.765 167.094H315.86C318.617 167.094 320.853 164.859 320.853 162.101C320.853 159.344 318.617 157.109 315.86 157.109Z" fill="#FBF9FF"/>
    <path d="M345.331 157.109H336.236C333.479 157.109 331.243 159.344 331.243 162.101C331.243 164.859 333.479 167.094 336.236 167.094H345.331C348.088 167.094 350.323 164.859 350.323 162.101C350.323 159.344 348.088 157.109 345.331 157.109Z" fill="#FBF9FF"/>
    <path d="M287.568 156.276H231.044C228.286 156.276 226.051 158.512 226.051 161.269C226.051 164.026 228.286 166.262 231.044 166.262H287.568C290.325 166.262 292.56 164.026 292.56 161.269C292.56 158.512 290.325 156.276 287.568 156.276Z" fill="#FFF9F9"/>
    <path d="M426.253 156.276H369.729C366.971 156.276 364.736 158.512 364.736 161.269C364.736 164.026 366.971 166.262 369.729 166.262H426.253C429.01 166.262 431.246 164.026 431.246 161.269C431.246 158.512 429.01 156.276 426.253 156.276Z" fill="#FBF9FF"/>
    <path d="M239.583 179.645H230.489C227.731 179.645 225.496 181.88 225.496 184.638C225.496 187.395 227.731 189.63 230.489 189.63H239.583C242.341 189.63 244.576 187.395 244.576 184.638C244.576 181.88 242.341 179.645 239.583 179.645Z" fill="#FFF9F9"/>
    <path d="M343.597 179.645H334.502C331.745 179.645 329.51 181.88 329.51 184.638C329.51 187.395 331.745 189.63 334.502 189.63H343.597C346.354 189.63 348.59 187.395 348.59 184.638C348.59 181.88 346.354 179.645 343.597 179.645Z" fill="#FBF9FF"/>
    <path d="M373.068 179.645H363.973C361.216 179.645 358.98 181.88 358.98 184.638C358.98 187.395 361.216 189.63 363.973 189.63H373.068C375.825 189.63 378.06 187.395 378.06 184.638C378.06 181.88 375.825 179.645 373.068 179.645Z" fill="#FBF9FF"/>
    <path d="M315.305 178.813H258.781C256.023 178.813 253.788 181.048 253.788 183.805C253.788 186.563 256.023 188.798 258.781 188.798H315.305C318.062 188.798 320.297 186.563 320.297 183.805C320.297 181.048 318.062 178.813 315.305 178.813Z" fill="#FBF9FF"/>
    <path d="M260.386 269.259H251.291C248.534 269.259 246.299 271.494 246.299 274.252C246.299 277.009 248.534 279.244 251.291 279.244H260.386C263.143 279.244 265.379 277.009 265.379 274.252C265.379 271.494 263.143 269.259 260.386 269.259Z" fill="#FBF9FF"/>
    <path d="M289.857 269.259H280.762C278.005 269.259 275.769 271.494 275.769 274.252C275.769 277.009 278.005 279.244 280.762 279.244H289.857C292.614 279.244 294.849 277.009 294.849 274.252C294.849 271.494 292.614 269.259 289.857 269.259Z" fill="#FBF9FF"/>
    <path d="M370.779 270.091H314.255C311.497 270.091 309.262 272.327 309.262 275.084C309.262 277.841 311.497 280.077 314.255 280.077H370.779C373.536 280.077 375.772 277.841 375.772 275.084C375.772 272.327 373.536 270.091 370.779 270.091Z" fill="#FBF9FF"/>
    <path d="M156.372 269.259H147.278C144.52 269.259 142.285 271.494 142.285 274.252C142.285 277.009 144.52 279.244 147.278 279.244H156.372C159.129 279.244 161.365 277.009 161.365 274.252C161.365 271.494 159.129 269.259 156.372 269.259Z" fill="#FFF9F9"/>
    <path d="M232.094 270.091H175.57C172.812 270.091 170.577 272.327 170.577 275.084C170.577 277.841 172.812 280.077 175.57 280.077H232.094C234.851 280.077 237.086 277.841 237.086 275.084C237.086 272.327 234.851 270.091 232.094 270.091Z" fill="#FFF9F9"/>
    <path d="M184.109 246.723H175.015C172.257 246.723 170.022 248.958 170.022 251.715C170.022 254.473 172.257 256.708 175.015 256.708H184.109C186.866 256.708 189.102 254.473 189.102 251.715C189.102 248.958 186.866 246.723 184.109 246.723Z" fill="#FFF9F9"/>
    <path d="M288.123 246.723H279.028C276.271 246.723 274.036 248.958 274.036 251.715C274.036 254.473 276.271 256.708 279.028 256.708H288.123C290.88 256.708 293.116 254.473 293.116 251.715C293.116 248.958 290.88 246.723 288.123 246.723Z" fill="#FBF9FF"/>
    <path d="M317.594 246.723H308.499C305.742 246.723 303.506 248.958 303.506 251.715C303.506 254.473 305.742 256.708 308.499 256.708H317.594C320.351 256.708 322.586 254.473 322.586 251.715C322.586 248.958 320.351 246.723 317.594 246.723Z" fill="#FBF9FF"/>
    <path d="M259.831 247.555H203.307C200.549 247.555 198.314 249.79 198.314 252.548C198.314 255.305 200.549 257.54 203.307 257.54H259.831C262.588 257.54 264.823 255.305 264.823 252.548C264.823 249.79 262.588 247.555 259.831 247.555Z" fill="#FFF9F9"/>
    <path d="M211.846 224.186H202.752C199.994 224.186 197.759 226.422 197.759 229.179C197.759 231.936 199.994 234.172 202.752 234.172H211.846C214.603 234.172 216.839 231.936 216.839 229.179C216.839 226.422 214.603 224.186 211.846 224.186Z" fill="#FFF9F9"/>
    <path d="M315.86 224.186H306.765C304.008 224.186 301.773 226.422 301.773 229.179C301.773 231.936 304.008 234.172 306.765 234.172H315.86C318.617 234.172 320.853 231.936 320.853 229.179C320.853 226.422 318.617 224.186 315.86 224.186Z" fill="#FBF9FF"/>
    <path d="M345.331 224.186H336.236C333.479 224.186 331.243 226.422 331.243 229.179C331.243 231.936 333.479 234.172 336.236 234.172H345.331C348.088 234.172 350.323 231.936 350.323 229.179C350.323 226.422 348.088 224.186 345.331 224.186Z" fill="#FBF9FF"/>
    <path d="M287.568 225.019H231.044C228.286 225.019 226.051 227.254 226.051 230.011C226.051 232.769 228.286 235.004 231.044 235.004H287.568C290.325 235.004 292.56 232.769 292.56 230.011C292.56 227.254 290.325 225.019 287.568 225.019Z" fill="#FFF9F9"/>
    <path d="M239.583 201.65H230.489C227.731 201.65 225.496 203.885 225.496 206.643C225.496 209.4 227.731 211.635 230.489 211.635H239.583C242.341 211.635 244.576 209.4 244.576 206.643C244.576 203.885 242.341 201.65 239.583 201.65Z" fill="#FFF9F9"/>
    <path d="M343.597 201.65H334.502C331.745 201.65 329.51 203.885 329.51 206.643C329.51 209.4 331.745 211.635 334.502 211.635H343.597C346.354 211.635 348.59 209.4 348.59 206.643C348.59 203.885 346.354 201.65 343.597 201.65Z" fill="#FBF9FF"/>
    <path d="M373.068 201.65H363.973C361.216 201.65 358.98 203.885 358.98 206.643C358.98 209.4 361.216 211.635 363.973 211.635H373.068C375.825 211.635 378.06 209.4 378.06 206.643C378.06 203.885 375.825 201.65 373.068 201.65Z" fill="#FBF9FF"/>
    <path d="M315.305 202.482H258.781C256.023 202.482 253.788 204.718 253.788 207.475C253.788 210.232 256.023 212.468 258.781 212.468H315.305C318.062 212.468 320.297 210.232 320.297 207.475C320.297 204.718 318.062 202.482 315.305 202.482Z" fill="#FBF9FF"/>
    <path d="M566.134 594.828C565.077 595.365 564.002 595.903 562.944 596.423C535.554 610.118 513.642 617.902 483.669 626.431C481.138 598.174 478.693 548.507 476.318 517.719C475.694 509.727 475.07 503.018 474.463 498.286C474.31 495.769 473.797 493.288 472.938 490.918L474.81 628.858C437.525 638.723 399.225 644.243 360.672 645.309C358.661 645.361 356.685 645.396 354.778 645.431C354.102 645.448 353.443 645.465 352.784 645.465C350.618 645.483 348.468 645.5 346.301 645.5C305.673 645.53 265.193 640.623 225.749 630.886C226.598 602.924 227.448 553.812 228.263 517.719C228.436 510.663 228.592 504.093 228.765 498.286C229.095 485.873 229.441 476.928 229.771 473.929C229.479 474.461 229.252 475.025 229.095 475.611C227.489 483.086 226.394 490.662 225.818 498.286C225.212 504.093 224.605 510.663 223.998 517.719C220.774 555.216 217.411 606.2 213.943 627.818C193.306 622.184 173.056 615.217 153.321 606.963C142.919 602.629 132.703 597.954 122.671 592.938C124.578 580.457 126.572 566.467 128.617 551.957C130.212 540.706 131.859 529.143 133.541 517.719C136.141 500.071 138.811 482.77 141.515 467.532C145.468 445.273 149.524 427.383 153.546 419.166C157.36 411.365 161.174 403.668 164.866 396.3C166.149 393.717 167.432 391.169 168.68 388.69C168.975 388.1 169.269 387.528 169.564 386.956C172.216 381.738 174.782 376.746 177.226 372.065C179.324 368.06 181.318 364.281 183.207 360.797C187.784 352.337 191.667 345.593 194.545 341.329C206.576 323.079 224.487 309.493 245.304 302.826L245.824 302.688L246.188 302.844L290.307 289.287L327.752 260.787L403.526 265.451L418.279 300.971L451.32 313.054L451.892 312.794L452.395 312.586L452.915 312.725C473.729 319.398 491.638 332.983 503.674 351.227C505.303 353.672 507.28 356.896 509.516 360.797C511.423 364.108 513.503 367.887 515.757 372.065C518.964 378.011 522.466 384.72 526.176 391.984C526.99 393.578 527.822 395.208 528.655 396.855C530.197 399.906 531.763 403.021 533.353 406.199C537.045 413.566 540.859 421.263 544.673 429.082C547.984 435.86 551.33 449.798 554.623 467.532C557.345 482.268 560.049 499.638 562.667 517.719C566.1 541.157 562.442 569.223 565.545 590.789C565.735 592.158 565.944 593.493 566.134 594.828Z" fill="#3B3355"/>
    <path d="M347.367 232.435C396.039 232.435 435.495 192.978 435.495 144.306C435.495 95.6344 396.039 56.178 347.367 56.178C298.695 56.178 259.239 95.6344 259.239 144.306C259.239 192.978 298.695 232.435 347.367 232.435Z" fill="#FFDBC7"/>
    <path d="M202.97 467.456L217.7 410.609L230.707 459.662L202.97 467.456Z" fill="#000807"/>
    <path d="M594.946 430.417C589.676 503.018 595.137 534.985 566.048 594.845C539.58 607.8 512.012 618.37 483.669 626.431C480.721 627.263 477.769 628.072 474.81 628.858C437.525 638.723 399.225 644.243 360.672 645.309C358.661 645.361 356.685 645.396 354.778 645.431C354.102 645.448 353.443 645.465 352.784 645.465C350.618 645.483 348.468 645.5 346.301 645.5C305.673 645.53 265.193 640.623 225.749 630.886C221.796 629.915 217.861 628.892 213.943 627.818C193.306 622.184 173.056 615.217 153.321 606.963C142.919 602.629 132.703 597.954 122.671 592.938C120.4 591.794 118.129 590.65 115.893 589.471C104.399 569.258 97.8639 544.676 97.7252 515.136C105.682 464.238 577.368 386.523 594.946 430.417Z" fill="#2F2E41"/>
    <path d="M594.932 442.85C595.202 438.355 595.502 433.713 595.853 428.878C578.275 384.984 106.59 462.7 98.6326 513.597C98.6545 518.264 98.8541 522.792 99.1896 527.213C118.459 476.978 566.567 403.114 594.932 442.85Z" fill="#000807"/>
    <path d="M128.037 236.642C128.152 235.07 127.929 233.492 127.383 232.014C126.837 230.535 125.98 229.191 124.871 228.072C123.762 226.952 122.426 226.083 120.953 225.524C119.48 224.964 117.904 224.726 116.331 224.826C115.745 224.849 115.162 224.922 114.589 225.044L45.6587 240.616C44.1184 240.99 42.6734 241.682 41.4168 242.648C40.1602 243.614 39.1198 244.832 38.3626 246.225C37.3517 246.262 36.3479 246.408 35.3681 246.66C33.223 247.146 31.1948 248.05 29.3991 249.32C27.6034 250.59 26.0754 252.201 24.9024 254.062C23.7295 255.923 22.9344 257.996 22.5628 260.164C22.1911 262.332 22.25 264.551 22.7362 266.696C23.2224 268.841 24.1264 270.87 25.3965 272.665C26.6665 274.461 28.2778 275.989 30.1384 277.162C33.896 279.531 38.4407 280.31 42.7728 279.328C45.2386 278.756 47.5454 277.64 49.5242 276.062L72.8822 341.834C74.049 343.895 75.8516 345.524 78.0204 346.475C80.1893 347.427 82.608 347.652 84.9149 347.115L129.725 336.988C132.015 336.452 134.075 335.204 135.611 333.424C137.147 331.643 138.079 329.422 138.273 327.079L128.037 236.642ZM41.7383 274.646C38.6444 275.344 35.4 274.786 32.7164 273.096C30.0329 271.405 28.1293 268.72 27.423 265.628C26.7166 262.536 27.2653 259.29 28.9486 256.602C30.6319 253.914 33.3125 252.003 36.4025 251.288C36.6202 251.234 36.8382 251.288 37.0559 251.234C37.0394 253.217 37.5466 255.171 38.5261 256.896L47.0741 271.815C45.586 273.226 43.7412 274.205 41.7383 274.646Z" fill="#2F2E41"/>
    <path d="M116.331 224.826C116.985 233.538 102.066 243.556 82.084 247.531C63.7349 251.288 47.292 248.674 42.6638 241.814C43.594 241.262 44.6044 240.858 45.6587 240.616L114.589 225.044C115.162 224.922 115.745 224.849 116.331 224.826Z" fill="#3B3355"/>
    <path d="M68.6591 445.976L107.376 426.617L75.1119 339.504L66.6089 295.572C65.5042 289.865 62.9209 284.547 59.1171 280.151C55.3134 275.754 50.4224 272.433 44.9331 270.519C39.4437 268.605 33.5481 268.165 27.8354 269.244C22.1228 270.322 16.7932 272.881 12.3792 276.664C5.83828 282.271 1.73133 290.199 0.925148 298.776C0.118967 307.353 2.67659 315.908 8.05827 322.635L39.6216 362.089L68.6591 445.976Z" fill="#FFDBC7"/>
    <path d="M107.376 410.485L55.7536 436.296L94.9296 559.049C97.7428 567.863 102.786 575.802 109.57 582.094C116.354 588.386 124.649 592.819 133.65 594.962C144.749 597.604 156.401 596.644 166.917 592.218C177.433 587.793 186.266 580.134 192.136 570.35L296.019 392.289C303.381 380.019 305.654 365.357 302.351 351.435C299.049 337.512 290.433 325.433 278.345 317.777C271.843 313.66 264.547 310.957 256.932 309.846C249.317 308.734 241.554 309.238 234.147 311.326C226.739 313.413 219.855 317.037 213.941 321.961C208.027 326.885 203.216 333 199.821 339.906L136.414 475.014L107.376 410.485Z" fill="#3B3355"/>
    <path d="M91.4095 299.552C91.3136 299.552 91.2183 299.536 91.1276 299.505L79.8569 295.625C79.7207 295.578 79.5983 295.498 79.5008 295.393C79.4032 295.287 79.3336 295.158 79.2982 295.019C79.2629 294.879 79.2628 294.733 79.2981 294.594C79.3335 294.454 79.4031 294.326 79.5006 294.22L87.8831 285.093C87.9599 285.009 88.0526 284.94 88.1558 284.892C88.2591 284.843 88.371 284.816 88.485 284.811C88.5989 284.805 88.7128 284.823 88.82 284.862C88.9272 284.901 89.0257 284.961 89.1098 285.038C89.1938 285.115 89.2618 285.208 89.3098 285.311C89.3578 285.415 89.3849 285.527 89.3896 285.641C89.3942 285.755 89.3763 285.869 89.3368 285.976C89.2974 286.083 89.2371 286.181 89.1596 286.265L81.6726 294.416L91.6914 297.866C91.8853 297.933 92.0493 298.066 92.1542 298.243C92.2592 298.419 92.2982 298.626 92.2644 298.829C92.2306 299.031 92.1261 299.215 91.9696 299.347C91.8131 299.48 91.6146 299.552 91.4095 299.552Z" fill="#9D96B8"/>
    <path d="M106.858 296.39C106.686 296.39 106.517 296.338 106.374 296.242C106.231 296.145 106.12 296.008 106.055 295.848C105.99 295.688 105.975 295.512 106.01 295.344C106.046 295.175 106.132 295.02 106.256 294.9L113.874 287.534L103.64 283.317C103.535 283.274 103.439 283.21 103.358 283.13C103.277 283.05 103.213 282.954 103.169 282.849C103.125 282.744 103.103 282.632 103.102 282.518C103.102 282.404 103.124 282.291 103.168 282.186C103.211 282.08 103.275 281.985 103.355 281.904C103.436 281.823 103.531 281.759 103.637 281.716C103.742 281.672 103.855 281.65 103.968 281.65C104.082 281.65 104.195 281.672 104.3 281.716L115.758 286.437C115.891 286.492 116.009 286.579 116.1 286.69C116.191 286.802 116.252 286.934 116.28 287.075C116.307 287.217 116.298 287.363 116.255 287.5C116.211 287.637 116.134 287.761 116.031 287.861L107.461 296.146C107.299 296.303 107.083 296.39 106.858 296.39Z" fill="#9D96B8"/>
    <path d="M93.7754 304.855C93.6889 304.855 93.603 304.842 93.5205 304.816C93.4117 304.782 93.3105 304.728 93.2227 304.655C93.1349 304.583 93.0623 304.494 93.009 304.393C92.9557 304.292 92.9227 304.182 92.912 304.069C92.9013 303.956 92.9131 303.841 92.9466 303.732L100.947 277.729C101.015 277.51 101.167 277.327 101.371 277.22C101.574 277.113 101.811 277.091 102.03 277.159C102.249 277.226 102.433 277.378 102.54 277.581C102.648 277.784 102.671 278.021 102.604 278.24L94.604 304.244C94.5493 304.421 94.4393 304.575 94.2902 304.685C94.1411 304.795 93.9607 304.855 93.7754 304.855Z" fill="#9D96B8"/>
    <path d="M492.517 27.5807C490.773 23.5145 488.453 19.7199 485.627 16.3137C472.229 -0.0322199 447.864 -7.22577 422.856 12.1189C418.042 11.0446 413.024 11.3327 408.365 12.9509C406.165 13.7464 404.104 14.8811 402.256 16.3137C398.469 19.264 395.515 23.1466 393.683 27.5807C392.704 29.9227 392.061 32.3912 391.774 34.913C385.592 31.7049 379.05 29.2435 372.285 27.5807C355.686 23.457 338.329 23.457 321.731 27.5807C316.412 28.9247 311.29 30.9524 306.494 33.613C298.372 38.2931 293.704 44.204 292.871 50.7736C281.156 51.4323 268.973 57.5858 259.897 67.6742C258.873 68.8009 257.884 69.9796 256.964 71.1929C249.331 81.1685 245.229 93.3925 245.302 105.948V108.149H247.506C253.545 108.143 259.527 109.309 265.121 111.581C268.745 113.035 272.178 114.927 275.343 117.215C277.413 118.682 279.368 120.304 281.191 122.068C285.418 126.155 288.999 130.86 291.812 136.022C299.022 149.065 301.522 164.188 298.893 178.854C298.289 182.249 297.407 185.588 296.255 188.838C294.615 193.476 292.455 197.912 289.816 202.064C289.712 202.22 289.625 202.376 289.521 202.532C288.358 204.387 287.248 206.276 286.206 208.183C285.426 209.604 284.697 211.061 284.02 212.517C282.042 216.569 280.371 220.764 279.022 225.066C276.606 232.675 275.183 240.564 274.787 248.536C274.666 250.651 274.631 252.766 274.7 254.881C274.804 260.332 275.402 265.762 276.488 271.105C276.644 271.833 276.8 272.544 276.957 273.272L278.223 278.802L281.226 291.993L285.235 309.5L288.081 305.427C289.053 304.04 291.5 299.776 294.78 293.743C296.949 289.809 299.465 285.111 302.19 279.98C305.991 272.787 310.156 264.761 314.234 256.753C315.883 253.511 317.514 250.287 319.093 247.133C322.078 241.152 324.89 235.38 327.302 230.249C329.523 225.517 331.415 221.322 332.821 217.959C333.255 220.161 333.619 222.397 333.897 224.65C334.209 226.938 334.435 229.261 334.556 231.584C334.591 231.931 334.608 232.295 334.626 232.641L334.695 234.063L334.712 234.479L336.552 234.722C347.162 235.856 357.858 235.938 368.484 234.964H368.502C382.578 233.906 396.389 230.563 409.389 225.066C416.772 221.867 423.666 217.642 429.867 212.517C432.764 210.121 435.469 207.501 437.954 204.682C438.579 203.971 439.186 203.26 439.776 202.532C443.211 198.316 446.151 193.722 448.54 188.839C450.14 185.616 451.498 182.278 452.602 178.854C459.266 158.695 458.884 133.543 451.456 103.66C453.462 103.274 455.384 102.534 457.131 101.476C462.58 98.1995 466.364 91.6993 467.544 83.7603L469.418 84.2629C476.062 81.1717 481.981 76.7187 486.79 71.1932C487.742 70.0681 488.634 68.8935 489.462 67.6743C497.949 55.1937 498.018 40.2172 492.517 27.5807Z" fill="#41332E"/>
</svg>